<svg xmlns="http://www.w3.org/2000/svg" viewBox="0 0 100 100">
  <defs>
    <linearGradient id="grad" x1="0%" y1="0%" x2="100%" y2="100%">
      <stop offset="0%" style="stop-color:#818cf8;stop-opacity:1" />
      <stop offset="100%" style="stop-color:#f472b6;stop-opacity:1" />
    </linearGradient>
  </defs>
  <circle cx="50" cy="50" r="45" fill="url(#grad)"/>
  <path d="M50 25 C35 25 25 37 25 50 C25 63 35 75 50 75 C65 75 75 63 75 50 C75 37 65 25 50 25 M50 35 C60 35 65 42 65 50 C65 58 60 65 50 65 C40 65 35 58 35 50 C35 42 40 35 50 35" fill="white" fill-opacity="0.9"/>
  <circle cx="50" cy="50" r="10" fill="white"/>
</svg>
